<?xml version="1.0" encoding="utf-8"?>
<!-- Generator: Adobe Illustrator 25.2.3, SVG Export Plug-In . SVG Version: 6.00 Build 0)  -->
<svg version="1.1" id="Camada_1" xmlns="http://www.w3.org/2000/svg" xmlns:xlink="http://www.w3.org/1999/xlink" x="0px" y="0px"
	 viewBox="0 0 1920 1080" style="enable-background:new 0 0 1920 1080;" xml:space="preserve">
<style type="text/css">
	.st0{fill:#FFFFFF;}
	.st1{fill:#E0E1E0;}
	.st2{fill:#ABCA51;}
	.st3{fill:#C9C9C8;}
	.st4{fill:#E9EAE7;}
	.st5{fill:#9AC341;}
</style>
<path class="st0" d="M263.95,467.82c-6.62-0.08-13.25-0.68-19.82-0.78c-25.05-0.39-50.08-1.99-75.14-1.16
	c-3.93,0.13-7.84,1-11.74,1.61c-1.02,0.16-1.96,0.43-2.67-0.58c-1.35,0.11-2.69,0.21-4.04,0.32c-1.72,2.9-4.06,3.36-6.93,1.73
	l-4.11,0.67c-0.5,1.06-1.11,1.34-1.92,0.28c-1.01,0.1-2.03,0.21-3.04,0.31c-0.3,1.27-0.76,2.03-1.95,0.65
	c-1.01,0.2-2.03,0.4-3.04,0.6c-0.45,1.19-1.03,1.67-1.95,0.36c-1.68,0.23-3.35,0.46-5.02,0.69c-3.05,2.02-6.18,3.67-10,2.19
	c-1.33,0.17-2.66,0.34-4,0.51c-1.57,2.19-3.61,2.5-5.98,1.48c-2.07,0.11-4.16,0.12-6.09,1.07c-2.28,3.51-5.77,1.99-8.87,2.1
	c-1.01,0.16-2.02,0.33-3.03,0.49c-0.68,1.64-1.67,1.81-2.95,0.61c-14.84,3.51-29.71,6.9-44.5,10.58
	c-10.29,2.56-20.48,5.48-30.7,8.31c-3.49,0.97-5.17,0.44-4.94-3.79c0.18-3.43,0.22-6.86,0.19-10.3c-0.37,0.07-0.75,0.14-1.12,0.21
	c0,21.5,0.01,42.99,0,64.49c0.33-0.13,0.66-0.26,1-0.39c-0.34-12.02,0.01-12.37,12.22-16.13c32.65-10.04,65.42-19.65,98.47-28.33
	c26.13-6.86,52.35-13.34,78.66-19.44c19.51-4.52,39.22-8.21,58.81-12.37c5.83-1.24,11.6-2.72,17.58-3.06
	C267.7,468,265.98,467.84,263.95,467.82z"/>
<path class="st1" d="M1920.09,644.76c-10.4,0.57-20.76,1.41-31.09,2.79c-5.41,0.73-10.89,0.42-16.36,0.99
	c-12.17,1.25-24.46,1.44-36.68,2.2c-46.34,2.9-92.75,2.21-139.12,1.72c-16.7-0.18-33.51-0.13-50.19-1.77
	c-12.71-1.25-25.48-1.26-38.2-2.1c-15.82-1.05-31.68-1.75-47.46-3.64c-9.68-1.16-19.48-1.29-29.19-2.22
	c-15.44-1.49-30.94-2.47-46.32-4.69c-7.68-1.11-15.45-1.83-23.2-2.16c-13.08-0.55-25.88-3.2-38.85-4.6
	c-12.31-1.33-24.58-2.91-36.87-4.43c-7.7-0.95-15.39-1.94-23.07-2.99c-9.32-1.27-18.62-2.62-27.93-3.96
	c-15.02-2.16-30.05-4.3-45.07-6.51c-14.36-2.11-28.73-4.22-43.08-6.45c-13.21-2.05-26.36-4.49-39.6-6.3
	c-14.54-1.99-28.9-5.06-43.5-6.72c-7.67-0.87-15.17-3.09-22.8-4.38c-19.18-3.24-38.42-6.21-57.6-9.47
	c-15.78-2.68-31.5-5.69-47.27-8.43c-16.57-2.88-33.17-5.57-49.75-8.43c-10.89-1.88-21.72-4.13-32.64-5.85
	c-12.39-1.95-24.67-4.48-37.11-6.2c-11.42-1.58-22.68-4.23-34.04-6.22c-14.95-2.62-30-4.71-44.89-7.66
	c-13.59-2.69-27.31-4.56-40.93-7c-14.1-2.52-28.19-5.26-42.46-6.96c-8.66-1.03-17.18-3.19-25.85-4.41
	c-16.17-2.28-32.29-4.87-48.42-7.41c-8.8-1.39-17.54-3.31-26.38-4.31c-14.27-1.62-28.39-4.2-42.67-5.79
	c-9.47-1.05-18.85-3.38-28.38-4.2c-12.19-1.05-24.07-4.01-36.33-4.73c-10.51-0.62-20.9-3.06-31.4-4.14
	c-13.46-1.38-26.78-3.86-40.32-4.73c-10.54-0.67-21.02-2.13-31.53-3.29c-10.5-1.16-20.98-2.48-31.49-3.53
	c-5.93-0.59-11.89-0.8-17.84-1.17c0.28-1.39,1.23-1.72,2.53-1.86c5.58-0.59,11.15-1.41,16.74-1.92c19.1-1.72,38.19-3.76,57.33-4.88
	c15.86-0.93,31.72-1.88,47.57-2.91c0.07,0.92,0.46,1.5,1.46,1.67c10.27,1.7,20.55,3.28,30.79,5.16c20.96,3.87,41.93,7.61,62.98,11
	c17.94,2.89,35.74,6.62,53.65,9.7c8.62,1.49,17.19,3.43,25.78,4.74c21.39,3.26,42.6,7.48,63.92,11.06
	c13.36,2.24,26.68,4.77,40.04,7.05c19.04,3.26,38.11,6.32,57.15,9.64c15.3,2.66,30.53,5.66,45.83,8.33
	c12.69,2.21,25.44,4.08,38.15,6.23c16.6,2.81,33.12,6.18,49.79,8.5c16.85,2.34,33.67,4.92,50.47,7.51
	c22.2,3.42,44.46,6.36,66.65,9.79c18.62,2.88,37.33,4.97,55.96,7.63c12.26,1.75,24.63,2.72,36.91,4.36
	c15.87,2.12,31.71,4.5,47.7,5.69c10.3,0.25,20.04,3.72,30.13,5.25c14.02,2.13,27.95,4.98,41.96,6.95
	c18.35,2.59,36.71,5.27,55.11,7.53c14.14,1.74,28.3,3.25,42.42,5.11c6.63,0.87,13.4,0.02,19.88,1.32c14.7,2.95,29.7,1.81,44.47,3.99
	c8.81,1.3,17.96,0.14,26.86,1.06c18.57,1.92,37.23,0.87,55.8,2.19c0.49,0.4,0.97,1.13,1.49,1.16c6.96,0.39,13.69,2.32,20.57,3.08
	c23.96,2.65,47.81,6.1,71.83,8.37c19.09,1.81,38.22,3.14,57.33,4.42c16.7,1.12,33.49,1.71,50.28,1.3
	c13.14-0.32,26.31,0.37,39.43-0.23c19.49-0.88,38.96-2.35,58.42-3.88c10.2-0.8,20.32-2.68,30.53-3.28c9.44-0.55,18.49-3.6,27.96-3.6
	C1920.09,630.18,1920.09,637.47,1920.09,644.76z"/>
<path class="st2" d="M1562.25,615.55c-18.57-1.31-37.23-0.27-55.8-2.19c-8.9-0.92-18.05,0.24-26.86-1.06
	c-14.77-2.17-29.77-1.04-44.47-3.99c-6.48-1.3-13.26-0.44-19.88-1.32c-14.12-1.86-28.29-3.37-42.42-5.11
	c-18.4-2.26-36.76-4.95-55.11-7.53c-14.01-1.97-27.94-4.82-41.96-6.95c-10.09-1.54-19.82-5.01-30.13-5.25
	c-0.58-0.28-1.13-0.7-1.73-0.81c-10.09-1.77-20.22-3.32-30.26-5.28c-10.15-1.99-20.21-4.45-30.33-6.57
	c-19.12-3.99-38.27-7.87-57.4-11.81c-10.07-2.08-20.15-4.13-30.19-6.33c-18.14-3.98-36.24-8.07-54.37-12.09
	c-8.88-1.97-17.79-3.82-26.66-5.83c-15.63-3.53-31.38-6.57-46.82-10.93c0-3.96,0-7.92-0.01-11.88c1.32,0.04,2.68-0.12,3.95,0.16
	c27.4,5.97,54.79,11.97,82.17,17.99c22.04,4.85,44.02,9.99,66.13,14.52c28.61,5.86,57.29,11.44,86.01,16.74
	c18.09,3.34,36.18,6.64,54.35,9.59c30.15,4.89,60.37,9.16,90.69,12.92c20.08,2.49,40.15,4.83,60.32,6.32
	c0.65,0.08,1.31,0.16,1.96,0.24c1.49,1.18,3.17,0.75,4.82,0.54c9.14,1.25,18.44,1.57,27.57,2.04c20.35,1.06,40.7,2.7,61.05,3.08
	c30.84,0.56,61.73,1.43,92.52-1.71c8.65-0.03,17.45,0.92,25.92-0.35c10.63-1.59,21.34-1.31,31.9-2.75
	c15.05-2.06,30.24-2.76,45.26-4.94c16.97-2.46,33.95-4.92,50.8-8.01c9.07-1.67,18.31-2.72,27.19-5.03c13-3.37,26.18-6.02,39.26-8.95
	c18.18-4.07,35.97-9.47,53.98-14.07c9.62-2.45,19.22-5.4,28.61-8.95c5.74-2.18,11.92-3.5,17.79-5.57c0,9.94,0,19.88,0,29.82
	c-0.66,0.11-1.33,0.15-1.97,0.34c-18.45,5.5-36.92,10.86-55.67,15.31c-9.12,2.17-18.64,3.24-27.11,7.76
	c-1.73,0.16-3.45,0.33-5.18,0.49c-4,0.71-8.01,1.42-12.01,2.13c-3.4,0.03-6.76,0.2-9.5,2.61c-0.48,0-0.97,0.01-1.45,0.01
	c-8.12,0.57-16.1,1.91-23.87,4.38c-0.72,0.18-1.44,0.37-2.16,0.55c-11.43,0.92-22.81,2.17-33.89,5.3c-1.01,0.07-2.03,0.13-3.04,0.2
	c-4.34-0.46-8.5,0.38-12.59,1.76c-10.63,0.01-21.08,2.19-31.54,3.47c-15.13,1.85-30.38,3.02-45.47,3.78
	c-29.46,1.48-58.97,3.63-88.53,2.62C1564.8,614.89,1563.43,614.68,1562.25,615.55z"/>
<path class="st3" d="M1562.25,615.55c1.18-0.87,2.54-0.66,3.85-0.61c29.56,1,59.07-1.14,88.53-2.62c15.1-0.76,30.34-1.93,45.47-3.78
	c10.46-1.28,20.91-3.46,31.54-3.47c4.28-0.96,8.34,1.59,12.61,0.81c8.62,0.07,17.22,0.74,25.82,0.92
	c22.66,0.49,45.31-0.08,67.98-0.65c12.6-0.32,25.1-1.67,37.64-2.45c6.26-0.39,12.65,0.18,18.8-1.1c8.47-1.76,16.93-3.02,25.59-2.58
	c0,7.62,0,15.24,0,22.86c-9.47,0-18.52,3.05-27.96,3.6c-10.2,0.6-20.33,2.48-30.53,3.28c-19.46,1.53-38.93,2.99-58.42,3.88
	c-13.12,0.6-26.29-0.09-39.43,0.23c-16.79,0.41-33.59-0.18-50.28-1.3c-19.11-1.29-38.24-2.62-57.33-4.42
	c-24.02-2.27-47.87-5.72-71.83-8.37c-6.88-0.76-13.61-2.69-20.57-3.08C1563.22,616.68,1562.75,615.95,1562.25,615.55z"/>
<path class="st4" d="M1920.09,600.03c-8.66-0.44-17.12,0.82-25.59,2.58c-6.15,1.28-12.54,0.7-18.8,1.1
	c-12.54,0.78-25.04,2.14-37.64,2.45c-22.66,0.57-45.32,1.14-67.98,0.65c-8.6-0.18-17.2-0.85-25.82-0.92
	c-0.01-0.86-0.01-1.71-0.02-2.57c1.01-0.07,2.03-0.13,3.04-0.2c2.68,1.75,5.26-0.43,7.99-0.21c8.07,0.65,15.47-3.62,23.52-3.66
	c0.95,0,1.97-0.32,2.38-1.42c0.72-0.18,1.44-0.37,2.16-0.55c1.22,1.21,2.82,0.92,4.19,0.71c5.38-0.83,10.72-1.9,16.09-2.82
	c1.56-0.27,3.45,0.15,3.6-2.27c0.48,0,0.97-0.01,1.45-0.01c2.16,0.06,4.32,0.08,6.47,0.2c2.05,0.11,3.19-0.62,3.03-2.81
	c4-0.71,8.01-1.42,12.01-2.13c2.03,3.06,3.75,2.84,5.18-0.49c8.47-4.52,17.98-5.59,27.11-7.76c18.75-4.45,37.23-9.82,55.67-15.31
	c0.63-0.19,1.31-0.23,1.97-0.34c0,2.98,0,5.96,0,8.95c-11.38,2.32-22.75,4.63-34.13,6.95c2.12,1.15,4.04,0.99,6.02,0.58
	c9.36-1.91,18.74-3.71,28.11-5.54C1920.09,583.46,1920.09,591.74,1920.09,600.03z M1840.08,587.5c0.05,0.53,0.09,1.05,0.14,1.58
	c13.45-2.12,26.9-4.25,40.34-6.37c-0.09-0.57-0.19-1.15-0.28-1.72C1866.88,583.15,1853.48,585.32,1840.08,587.5z M1813.87,597.24
	c8.91-0.65,17.76-2.19,26.67-3.23C1831.6,594.5,1822.61,594.54,1813.87,597.24z"/>
<path class="st0" d="M1920.09,575.17c-9.37,1.84-18.75,3.64-28.11,5.54c-1.98,0.4-3.9,0.57-6.02-0.58
	c11.38-2.32,22.75-4.63,34.13-6.95C1920.09,573.85,1920.09,574.51,1920.09,575.17z"/>
<path class="st3" d="M1413.43,589.08c-0.65-0.08-1.31-0.16-1.96-0.24c-0.33-1.81-1.82-1.49-3.09-1.78
	c-36.35-8.5-72.97-15.85-109.23-24.75c-18.12-4.45-36.45-8.06-54.65-12.2c-22.55-5.13-45.04-10.52-67.6-15.62
	c-19.82-4.48-39.7-8.72-59.56-13.03c-29.89-6.48-59.92-12.25-89.99-17.85c-10.24-1.91-20.42-4.13-30.69-5.87
	c-18.24-3.09-36.52-5.94-54.79-8.87c-10.77-1.73-21.49-3.8-32.32-5.03c-22.33-2.55-44.54-6.02-66.92-8.31
	c-20.07-2.05-40.1-4.49-60.23-5.86c-7.87-0.15-15.37-4.13-23.44-2.27c-1.67-0.53-3.36-0.52-5.07-0.2c-0.56-0.91-1.16-0.94-1.8-0.08
	c-1.45-0.07-2.9-0.13-4.35-0.2c-0.24-0.42-0.44-1.17-0.74-1.21c-9.96-1.38-19.95-2.16-29.99-0.98c-5.35-1.08-10.75-0.74-16.14-0.47
	c-2.8-2.25-6.16-2.05-9.44-2.03c-15.73,0.11-31.47-0.73-47.2,0.1c-3.13-0.13-6.26-0.32-9.38-0.39c-32.94-0.72-65.86,1.01-98.79,1.06
	c-1.96,0-3.92,0.54-5.89,0.83c-1.03-1.26-2.03-1.25-3,0.07c-2.93,0.06-5.86,0.12-8.79,0.18c-15.86,1.03-31.72,1.98-47.58,2.91
	c-19.14,1.12-38.23,3.15-57.33,4.88c-5.59,0.5-11.15,1.33-16.74,1.92c-1.3,0.14-2.26,0.47-2.53,1.86
	c-7.58-1.88-15.16-0.77-22.7,0.21c-11.6,1.5-23.19,3.14-34.76,4.86c-20.7,3.08-41.37,6.29-62.02,9.77
	c-21.78,3.67-43.48,7.68-65.08,12.2c-27.11,5.68-54.2,11.53-81.11,18.08c-28.53,6.95-56.94,14.46-85.12,22.75
	c-12.83,3.77-25.71,7.38-38.52,11.22c-2.62,0.79-3.39,0.04-3.3-2.39c0.01-0.33,0.01-0.66,0-0.99c-0.38-13.31-0.46-13.55,12.18-17.44
	c32.65-10.04,65.42-19.65,98.47-28.33c26.13-6.86,52.35-13.34,78.66-19.44c19.51-4.52,39.22-8.21,58.81-12.37
	c5.83-1.24,11.6-2.72,17.58-3.06c1.83,0.1,3.58-0.09,5.41-0.49c11.59-2.54,23.13-5.54,34.86-7.2c16.98-2.41,33.87-5.34,50.89-7.52
	c17.99-2.3,35.86-5.39,53.98-6.83c4.58-0.36,9.61,0.65,13.94-1.98c10.32-0.25,20.7,0.11,30.73-3.03c0.73-0.02,1.46-0.04,2.19-0.07
	c6.85-0.22,13.96,1.72,20.33-2.43c2.86-0.08,5.71-0.16,8.57-0.25c1.48,1.11,3.22,0.72,4.81,0.59c10.68-0.91,21.36-1.92,32.03-2.9
	c1.36-0.05,2.72-0.1,4.08-0.14c8.49,0.18,17.02,1.31,25.39-1.14c2.81-0.48,5.52-0.41,8.36,0.38c4.95,1.38,9.84-0.73,14.81-0.73
	c39.97,0.04,79.94-0.35,119.9,0.18c20.35,0.27,40.67,2.2,61.03,2.94c12.87,0.47,25.73,1.63,38.54,2.93
	c19.53,1.98,39.13,3.17,58.61,5.77c15.85,2.12,31.86,3.12,47.72,5.2c16.33,2.14,32.51,5.37,48.85,7.43
	c14.24,1.79,28.36,4.23,42.52,6.44c12.37,1.92,24.67,4.23,36.99,6.45c18.97,3.43,37.95,6.77,56.87,10.47
	c15.53,3.03,30.96,6.54,46.44,9.8c14.35,3.02,28.74,5.82,43.05,9c31.06,6.9,62.09,13.89,93.1,21c20.06,4.6,40.05,9.55,60.1,14.21
	c22.3,5.19,44.59,10.49,66.99,15.23c11.93,2.53,23.79,5.36,35.71,7.88c25.1,5.3,50.28,10.24,75.46,15.2
	c15.51,3.06,31.04,6.08,46.62,8.74c13.63,2.33,27.36,4.15,41.04,6.17c0.84,0.12,1.65,0.19,2.14,1c-30.79,3.14-61.68,2.27-92.52,1.71
	c-20.35-0.37-40.71-2.02-61.05-3.08c-9.13-0.47-18.42-0.79-27.57-2.04C1416.7,588.94,1415.27,587.2,1413.43,589.08z"/>
<path class="st5" d="M529.16,438.47c-1.36,0.05-2.72,0.1-4.07,0.15c-11.51-1.91-22.92,1.13-34.41,0.78c-0.79-0.02-1.62,1-2.43,1.53
	c-2.86,0.08-5.71,0.16-8.57,0.25c-6.97-0.78-13.75,0.01-20.33,2.43c-0.73,0.02-1.46,0.04-2.19,0.07
	c-10.68-0.39-21.32-0.19-31.82,2.13c-11.35,0.02-22.7,0.04-34.04,0.05c-3.33-1.41-6.66-1.5-9.97,0.08
	c-13.67,0.97-27.36,0.88-41.05,0.8c-3.72-0.83-7.49-2.22-10.94,0.79c-0.69,0.05-1.38,0.1-2.08,0.15c-4.05-0.82-8.13-2.07-11.92,0.81
	c-3.98,0.71-7.98,0.52-11.98,0.36c-0.7-0.98-1.36-0.9-1.97,0.09c-2.51,0.07-5.02,0.15-7.53,0.22c-5.93-0.2-11.95-1.14-17.49,2.02
	c-3.97,0.82-7.98,0.65-11.99,0.64c-1.09-1.22-2.09-1.15-2.99,0.21c-0.55,0.01-1.09,0.03-1.64,0.04c-2.81,0.3-6.01-1.67-8.36,1.4
	c-3.13,0.3-6.28,0.51-9.4,0.9c-20.05,2.51-40.15,4.64-60.1,7.8c-9.1,1.44-18.44,1.85-27.31,4.73c-1.35,0.11-2.69,0.21-4.04,0.32
	c-2.47-0.08-4.92-0.02-6.93,1.73c-1.37,0.22-2.74,0.44-4.11,0.67c-0.75-0.7-1.38-0.53-1.92,0.28c-1.01,0.1-2.03,0.21-3.04,0.31
	c-0.85-0.37-1.53-0.23-1.95,0.65c-1.01,0.2-2.03,0.4-3.04,0.6c-0.78-0.55-1.41-0.33-1.95,0.36c-1.67,0.23-3.35,0.46-5.02,0.69
	c-3.52-0.11-6.83,0.72-10,2.19c-1.33,0.17-2.66,0.34-4,0.51c-2.2-0.33-4.19,0.15-5.98,1.48c-2.07,0.11-4.16,0.12-6.09,1.07
	c-3.14-0.08-6.14,0.44-8.87,2.1c-1.01,0.16-2.02,0.33-3.03,0.49c-1.13-0.5-2.18-0.62-2.95,0.61c-14.84,3.51-29.71,6.9-44.5,10.58
	c-10.29,2.56-20.48,5.48-30.7,8.31c-3.49,0.97-5.17,0.44-4.94-3.79c0.35-6.44,0.17-12.92,0.05-19.37c-0.05-2.43,0.43-3.56,3.18-4.4
	c13.89-4.29,28.18-6.84,42.24-10.38c14.2-3.58,28.58-6.65,42.93-9.15c12.13-2.12,24.22-4.95,36.6-6.16
	c7.42-0.73,14.93-2.58,22.39-3.66c8.47-1.23,16.95-2.45,25.43-3.72c11.61-1.73,23.42-1.94,34.91-4.58c1.28-0.29,2.64-0.19,3.97-0.3
	c17.99-1.52,36.01-2.52,53.95-4.69c7.73-0.93,15.67-0.04,23.44-0.74c19.24-1.72,38.52-1.49,57.8-1.89
	c30.36-0.64,60.72-0.18,91.05,0.73c12.92,0.39,25.99,0.3,38.77,1.95c15.32,1.98,30.85,1.13,46.05,4.12c2.9,0.57,5.97,0.34,8.96,0.48
	c0.46,0.99,2.37,0.71,2.11,2.32C533.45,437.91,530.51,435.55,529.16,438.47z"/>
<path class="st1" d="M327.25,447.67c0.69-0.05,1.38-0.1,2.08-0.15c3.69,0.36,7.42,1.31,10.94-0.79c13.69,0.08,27.38,0.17,41.05-0.8
	c3.33,1,6.65,1.11,9.97-0.08c11.35-0.02,22.7-0.04,34.04-0.05c0.36,0.3,0.72,0.6,1.09,0.89c-4.34,2.63-9.36,1.61-13.94,1.98
	c-18.12,1.44-35.99,4.53-53.98,6.83c-17.02,2.18-33.92,5.12-50.89,7.52c-11.73,1.66-23.27,4.66-34.86,7.2
	c-1.82,0.4-3.58,0.58-5.41,0.49c0.38-2.71-1.34-2.87-3.38-2.9c-6.62-0.08-13.25-0.68-19.83-0.78c-25.05-0.39-50.08-1.99-75.14-1.17
	c-3.93,0.13-7.84,1-11.74,1.61c-1.02,0.16-1.96,0.43-2.67-0.58c8.87-2.88,18.21-3.29,27.31-4.73c19.94-3.15,40.05-5.28,60.1-7.8
	c3.12-0.39,6.27-0.6,9.4-0.9c2.95,0.52,5.81,0.46,8.36-1.4c0.55-0.01,1.09-0.03,1.64-0.04c1.07,0.99,2.06,0.8,2.99-0.21
	c4.01,0.01,8.03,0.18,11.99-0.64c5.89-0.14,11.91,0.77,17.49-2.03c2.51-0.07,5.02-0.15,7.53-0.22c0.69,0.75,1.35,0.73,1.97-0.09
	c4,0.16,8.01,0.35,11.98-0.36C319.34,448.7,323.39,449.53,327.25,447.67z"/>
<path class="st2" d="M529.16,438.47c1.35-2.92,4.29-0.56,6.18-1.87c0.26-1.61-1.66-1.33-2.11-2.32c7.32-0.47,14.42,0.63,21.33,3.05
	C546.18,439.77,537.65,438.64,529.16,438.47z"/>
<path class="st1" d="M112.55,474.69c3.17-1.47,6.48-2.3,10-2.19C119.51,474.52,116.38,476.17,112.55,474.69z"/>
<path class="st1" d="M87.63,479.84c2.73-1.66,5.73-2.17,8.87-2.1C94.21,481.26,90.72,479.73,87.63,479.84z"/>
<path class="st1" d="M143.6,468.94c2.01-1.75,4.45-1.81,6.93-1.73C148.81,470.11,146.47,470.57,143.6,468.94z"/>
<path class="st1" d="M102.58,476.68c1.78-1.33,3.78-1.81,5.98-1.48C106.99,477.39,104.95,477.69,102.58,476.68z"/>
<path class="st1" d="M81.65,480.94c0.77-1.22,1.82-1.11,2.95-0.61C83.91,481.97,82.92,482.14,81.65,480.94z"/>
<path class="st1" d="M137.57,469.88c0.54-0.8,1.17-0.98,1.92-0.28C139,470.67,138.38,470.94,137.57,469.88z"/>
<path class="st1" d="M127.58,471.81c0.54-0.7,1.18-0.92,1.95-0.36C129.08,472.64,128.5,473.12,127.58,471.81z"/>
<path class="st1" d="M132.58,470.84c0.43-0.88,1.11-1.02,1.95-0.65C134.23,471.46,133.77,472.22,132.58,470.84z"/>
<path class="st0" d="M530.19,463.82c1.96-0.29,3.92-0.83,5.89-0.83c32.93-0.05,65.85-1.78,98.79-1.06c3.13,0.07,6.26,0.26,9.37,0.39
	c3.41,0.48,6.83,1.11,10.27,1.4c6.22,0.53,12.08,3.49,18.48,2.7c24.27,3.8,48.6,7.25,72.78,11.49c29.1,5.11,58.12,10.7,87.1,16.46
	c27.99,5.56,55.89,11.57,83.82,17.4c17.05,3.56,34.1,7.14,51.14,10.71c15.44,4.36,31.19,7.41,46.82,10.93
	c8.87,2,17.78,3.86,26.66,5.83c18.13,4.02,36.24,8.11,54.37,12.09c10.04,2.2,20.12,4.26,30.19,6.33
	c19.13,3.95,38.28,7.82,57.4,11.81c10.13,2.11,20.18,4.58,30.33,6.57c10.05,1.97,20.18,3.52,30.26,5.28
	c0.61,0.11,1.16,0.53,1.73,0.81c-15.98-1.19-31.82-3.57-47.7-5.69c-12.28-1.64-24.65-2.61-36.91-4.36
	c-18.64-2.66-37.35-4.75-55.96-7.63c-22.19-3.43-44.45-6.37-66.65-9.79c-16.79-2.59-33.62-5.17-50.47-7.51
	c-16.67-2.32-33.18-5.69-49.79-8.5c-12.7-2.15-25.46-4.02-38.15-6.23c-15.3-2.66-30.53-5.66-45.83-8.33
	c-19.03-3.31-38.11-6.38-57.15-9.64c-13.36-2.29-26.67-4.81-40.04-7.05c-21.33-3.58-42.53-7.8-63.92-11.06
	c-8.6-1.31-17.16-3.26-25.78-4.74c-17.91-3.09-35.71-6.81-53.65-9.7c-21.05-3.39-42.02-7.13-62.98-11
	c-10.23-1.89-20.52-3.46-30.79-5.16c-1-0.17-1.4-0.75-1.46-1.67c2.93-0.06,5.86-0.12,8.8-0.18
	C528.22,465.09,529.22,465.09,530.19,463.82z"/>
<path class="st4" d="M782.4,469.67c20.14,1.37,40.17,3.8,60.24,5.86c22.38,2.29,44.58,5.76,66.92,8.31
	c10.82,1.24,21.55,3.31,32.32,5.03c18.27,2.93,36.55,5.78,54.79,8.87c10.27,1.74,20.45,3.96,30.69,5.87
	c30.07,5.6,60.1,11.37,89.99,17.85c19.86,4.31,39.74,8.55,59.56,13.03c22.56,5.09,45.05,10.48,67.6,15.62
	c18.2,4.14,36.53,7.75,54.65,12.2c36.26,8.91,72.88,16.25,109.23,24.75c1.27,0.3,2.76-0.03,3.09,1.78
	c-20.17-1.49-40.25-3.83-60.32-6.32c-30.32-3.76-60.54-8.03-90.69-12.92c-18.17-2.95-36.26-6.25-54.35-9.59
	c-28.72-5.3-57.4-10.88-86.01-16.74c-22.11-4.53-44.09-9.67-66.13-14.52c-27.39-6.02-54.77-12.02-82.17-17.99
	c-1.27-0.28-2.63-0.12-3.95-0.16c-2.95-0.88-5.77-2.36-9-1.99c-0.47-0.85-1.19-0.92-2.03-0.65c-13.98-3.08-27.97-6.15-41.95-9.23
	c-0.49-0.85-1.22-0.84-2.03-0.57c-21.57-4.6-43.14-9.18-64.7-13.8c-14.09-3.02-28.09-6.53-42.27-8.98
	c-7.32-1.27-14.46-4.06-22.09-3.5C783.31,471.14,782.86,470.4,782.4,469.67z"/>
<path class="st5" d="M914.87,498.73c13.98,3.08,27.97,6.15,41.95,9.23c0.33,1.27,0.82,2.08,2.03,0.65c3.23-0.37,6.05,1.11,9,1.99
	c0,3.96,0,7.92,0.01,11.88c-17.05-3.57-34.09-7.15-51.14-10.71c-27.94-5.83-55.83-11.84-83.82-17.4c-28.98-5.75-58-11.35-87.1-16.46
	c-24.19-4.25-48.52-7.69-72.78-11.49c-0.83-1.13-2.73-0.11-3.78-2.61c6.24,0.28,12.05-0.38,17.91,0.53
	c4.58,0.71,9.18,0.96,13.76-0.1c5.39-0.27,10.79-0.61,16.14,0.46c0.44,0.8,1.18,0.99,2.03,1.17c9.51,1.97,19.14,0.47,28.7,1.03
	c1.45,0.07,2.9,0.13,4.35,0.2c0.56,0.79,1.16,0.83,1.8,0.08c1.7-0.32,3.4-0.33,5.07,0.2c0.29,0.39,0.57,1.1,0.88,1.12
	c8.09,0.35,15.93,2.39,23.93,3.36c7.63-0.57,14.76,2.23,22.09,3.5c14.19,2.46,28.19,5.96,42.27,8.98c21.56,4.62,43.13,9.2,64.7,13.8
	C913.22,499.37,913.76,500.07,914.87,498.73z"/>
<path class="st1" d="M1781.17,597.82c-0.41,1.1-1.43,1.42-2.38,1.42c-8.04,0.04-15.44,4.31-23.52,3.66
	c-2.73-0.22-5.31,1.96-7.99,0.21C1758.36,599.99,1769.73,598.73,1781.17,597.82z"/>
<path class="st1" d="M1807.2,592.88c-0.14,2.42-2.04,2-3.6,2.27c-5.37,0.92-10.71,1.98-16.09,2.82c-1.36,0.21-2.96,0.5-4.19-0.71
	C1791.1,594.79,1799.08,593.45,1807.2,592.88z"/>
<path class="st1" d="M1744.24,603.31c0.01,0.86,0.01,1.72,0.02,2.57c-4.27,0.78-8.33-1.78-12.61-0.82
	C1735.73,603.69,1739.9,602.86,1744.24,603.31z"/>
<path class="st1" d="M1818.15,590.26c0.16,2.19-0.98,2.92-3.03,2.81c-2.15-0.12-4.31-0.14-6.47-0.2
	C1811.39,590.46,1814.75,590.3,1818.15,590.26z"/>
<path class="st0" d="M1835.34,587.65c-1.43,3.32-3.15,3.55-5.18,0.49C1831.89,587.97,1833.61,587.81,1835.34,587.65z"/>
<path class="st4" d="M1413.43,589.08c1.84-1.88,3.27-0.14,4.82,0.54C1416.6,589.83,1414.92,590.27,1413.43,589.08z"/>
<path class="st0" d="M1840.08,587.5c13.4-2.17,26.8-4.34,40.2-6.52c0.09,0.57,0.19,1.15,0.28,1.72c-13.45,2.12-26.9,4.25-40.34,6.37
	C1840.17,588.55,1840.13,588.02,1840.08,587.5z"/>
<path class="st1" d="M1813.87,597.24c8.74-2.7,17.73-2.75,26.67-3.23C1831.63,595.06,1822.78,596.59,1813.87,597.24z"/>
<path class="st2" d="M700.89,464.26c-4.58,1.06-9.18,0.81-13.76,0.1c-5.87-0.91-11.67-0.25-17.91-0.53c1.05,2.5,2.95,1.48,3.78,2.61
	c-6.41,0.79-12.26-2.17-18.48-2.7c-3.44-0.3-6.86-0.92-10.27-1.4c15.74-0.83,31.48,0.01,47.21-0.1
	C694.73,462.2,698.09,462.01,700.89,464.26z"/>
<path class="st2" d="M747.76,466.92c-9.56-0.56-19.19,0.94-28.7-1.03c-0.85-0.18-1.59-0.37-2.03-1.17
	c10.05-1.17,20.03-0.4,29.99,0.98C747.32,465.75,747.51,466.5,747.76,466.92z"/>
<path class="st2" d="M488.24,440.93c0.81-0.54,1.64-1.56,2.43-1.53c11.49,0.35,22.9-2.69,34.41-0.78c-10.68,0.98-21.35,2-32.04,2.9
	C491.46,441.65,489.73,442.04,488.24,440.93z"/>
<path class="st2" d="M426.41,446.7c-0.36-0.3-0.72-0.6-1.09-0.89c10.5-2.32,21.14-2.53,31.82-2.13
	C447.11,446.81,436.73,446.45,426.41,446.7z"/>
<path class="st2" d="M783.77,471.88c-7.99-0.98-15.84-3.01-23.93-3.36c-0.31-0.01-0.59-0.73-0.88-1.12
	c8.07-1.86,15.57,2.12,23.44,2.27C782.86,470.4,783.31,471.14,783.77,471.88z"/>
<path class="st2" d="M459.34,443.6c6.58-2.42,13.36-3.21,20.33-2.43C473.3,445.32,466.19,443.38,459.34,443.6z"/>
<path class="st1" d="M530.19,463.82c-0.97,1.26-1.97,1.26-3,0.07C528.16,462.57,529.16,462.57,530.19,463.82z"/>
<path class="st2" d="M753.9,467.2c-0.64,0.75-1.23,0.71-1.8-0.08C752.75,466.25,753.35,466.29,753.9,467.2z"/>
<path class="st2" d="M293.85,449.14c-5.58,2.8-11.6,1.89-17.49,2.03C281.9,448,287.92,448.94,293.85,449.14z"/>
<path class="st2" d="M327.25,447.67c-3.87,1.87-7.92,1.03-11.92,0.81C319.12,445.6,323.2,446.84,327.25,447.67z"/>
<path class="st2" d="M340.27,446.73c-3.51,2.1-7.25,1.15-10.94,0.79C332.78,444.51,336.54,445.9,340.27,446.73z"/>
<path class="st2" d="M391.28,445.85c-3.31,1.18-6.64,1.08-9.97,0.08C384.62,444.35,387.95,444.45,391.28,445.85z"/>
<path class="st2" d="M259.74,452.07c-2.55,1.86-5.4,1.92-8.36,1.4C253.73,450.4,256.92,452.36,259.74,452.07z"/>
<path class="st2" d="M264.37,451.81c-0.93,1.01-1.92,1.21-2.99,0.21C262.28,450.66,263.28,450.58,264.37,451.81z"/>
<path class="st2" d="M303.35,448.83c-0.62,0.81-1.28,0.84-1.97,0.09C301.99,447.93,302.65,447.85,303.35,448.83z"/>
<path class="st2" d="M914.87,498.73c-1.11,1.33-1.65,0.64-2.03-0.57C913.64,497.89,914.38,497.88,914.87,498.73z"/>
<path class="st2" d="M958.84,508.61c-1.21,1.42-1.69,0.61-2.03-0.65C957.65,507.69,958.37,507.76,958.84,508.61z"/>
</svg>
